<svg width="40" height="40" viewBox="0 0 40 40" fill="none" xmlns="http://www.w3.org/2000/svg">
<rect width="40" height="40" rx="4" fill="url(#paint0_linear_912_1110)"/>
<path d="M14.592 11.044C15.744 11.044 16.72 11.196 17.52 11.5C18.32 11.796 19.06 12.224 19.74 12.784L18.072 14.764C17.6 14.364 17.08 14.06 16.512 13.852C15.952 13.644 15.352 13.54 14.712 13.54C13.944 13.54 13.236 13.744 12.588 14.152C11.948 14.56 11.432 15.216 11.04 16.12C10.656 17.016 10.464 18.2 10.464 19.672C10.464 21.12 10.648 22.292 11.016 23.188C11.392 24.084 11.9 24.74 12.54 25.156C13.188 25.564 13.92 25.768 14.736 25.768C15.6 25.768 16.316 25.616 16.884 25.312C17.452 25.008 17.964 24.676 18.42 24.316L19.968 26.272C19.384 26.848 18.652 27.34 17.772 27.748C16.9 28.156 15.84 28.36 14.592 28.36C13.144 28.36 11.852 28.028 10.716 27.364C9.58 26.7 8.688 25.724 8.04 24.436C7.392 23.148 7.068 21.56 7.068 19.672C7.068 17.816 7.4 16.248 8.064 14.968C8.736 13.68 9.64 12.704 10.776 12.04C11.92 11.376 13.192 11.044 14.592 11.044ZM27.6506 25.18L31.2506 11.404H34.6106L29.5466 28H25.6346L20.5946 11.404H24.0866L27.6506 25.18Z" fill="white"/>
<defs>
<linearGradient id="paint0_linear_912_1110" x1="58" y1="-15" x2="1.5" y2="39" gradientUnits="userSpaceOnUse">
<stop stop-color="#DEE2E6"/>
<stop offset="1" stop-color="#286BA6"/>
</linearGradient>
</defs>
</svg>
